<svg width="37" height="37" viewBox="0 0 37 37" fill="none" xmlns="http://www.w3.org/2000/svg">
<path fill-rule="evenodd" clip-rule="evenodd" d="M18.0633 0.888428C8.12345 0.888428 0.0726013 9.00807 0.0726013 19.0329C0.0726013 27.0618 5.22244 33.8433 12.3738 36.2475C13.2733 36.4062 13.6106 35.8619 13.6106 35.3856C13.6106 34.9547 13.5881 33.5258 13.5881 32.0062C9.06796 32.8454 7.89856 30.8948 7.53875 29.8742C7.33635 29.3526 6.45931 27.7422 5.6947 27.3113C5.06503 26.9711 4.16549 26.1319 5.67221 26.1092C7.08898 26.0866 8.10096 27.4247 8.43828 27.969C10.0574 30.7134 12.6436 29.9422 13.6781 29.466C13.8355 28.2866 14.3078 27.4927 14.825 27.0391C10.8221 26.5855 6.63921 25.0206 6.63921 18.0803C6.63921 16.1071 7.33635 14.4741 8.48326 13.204C8.30335 12.7504 7.67368 10.8906 8.66317 8.3957C8.66317 8.3957 10.1699 7.91941 13.6106 10.2555C15.0499 9.84726 16.5791 9.64313 18.1083 9.64313C19.6375 9.64313 21.1667 9.84726 22.606 10.2555C26.0467 7.89673 27.5534 8.3957 27.5534 8.3957C28.5429 10.8906 27.9132 12.7504 27.7333 13.204C28.8802 14.4741 29.5774 16.0844 29.5774 18.0803C29.5774 25.0432 25.372 26.5855 21.3691 27.0391C22.0213 27.6061 22.5835 28.6948 22.5835 30.3959C22.5835 32.8227 22.561 34.7732 22.561 35.3856C22.561 35.8619 22.8983 36.4289 23.7979 36.2475C27.3693 35.0313 30.4727 32.7164 32.6713 29.6283C34.8699 26.5402 36.053 22.8346 36.054 19.0329C36.054 9.00807 28.0032 0.888428 18.0633 0.888428Z" fill="url(#paint0_linear_13_18)"/>
<defs>
<linearGradient id="paint0_linear_13_18" x1="18.0633" y1="0.888428" x2="18.0633" y2="36.2821" gradientUnits="userSpaceOnUse">
<stop stop-color="#E03FFA"/>
<stop offset="0.328125" stop-color="#CC57F0"/>
<stop offset="0.645833" stop-color="#8E18B8"/>
<stop offset="1" stop-color="#7947C2"/>
</linearGradient>
</defs>
</svg>
