<svg width="39" height="36" viewBox="0 0 39 36" fill="none" xmlns="http://www.w3.org/2000/svg">
<path d="M32.4568 30.5205H26.9033V22.4507C26.9033 20.5264 26.8663 18.0493 24.015 18.0493C21.1225 18.0493 20.6799 20.1459 20.6799 22.3107V30.5199H15.1266V13.9254H20.4578V16.1932H20.5325C21.066 15.3467 21.837 14.6504 22.7633 14.1783C23.6896 13.7063 24.7366 13.4762 25.7927 13.5125C31.4214 13.5125 32.4591 16.9478 32.4591 21.4169L32.4568 30.5205ZM8.86035 11.6571C7.08045 11.6574 5.6373 10.3188 5.63701 8.66726C5.63672 7.01577 7.07928 5.67672 8.85917 5.67645C10.6391 5.67604 12.0822 7.01468 12.0825 8.66617C12.0827 9.45926 11.7433 10.2199 11.139 10.7808C10.5347 11.3417 9.71509 11.6569 8.86035 11.6571ZM11.6371 30.5206H6.07785V13.9254H11.637L11.6371 30.5206ZM35.2254 0.890959H3.28729C1.77782 0.875201 0.539932 1.99716 0.521484 3.39775V33.1555C0.539346 34.5568 1.77709 35.6798 3.28715 35.6651H35.2254C36.7386 35.6825 37.9812 34.5595 38.0021 33.1555V3.39544C37.9806 1.99214 36.7379 0.87031 35.2254 0.888649" fill="url(#paint0_linear_8_7)"/>
<defs>
<linearGradient id="paint0_linear_8_7" x1="19.2618" y1="0.888428" x2="19.2618" y2="35.6653" gradientUnits="userSpaceOnUse">
<stop stop-color="#E03FFA"/>
<stop offset="0.317708" stop-color="#CC57F0"/>
<stop offset="0.604167" stop-color="#8E18B8"/>
<stop offset="1" stop-color="#7947C2"/>
</linearGradient>
</defs>
</svg>
