<svg width="40" height="45" viewBox="0 0 40 45" fill="none" xmlns="http://www.w3.org/2000/svg">
<path d="M11.0257 3.56881C16.1739 0.464851 21.3508 -0.0955855 23.2957 0.0121908C23.8106 0.0407216 24.3254 0.0121908 28.2724 0.820513C30.8809 2.37249 31.533 3.8113 31.533 4.53879C31.676 5.61656 31.5501 8.14391 29.9027 9.63122C29.0103 11.3125 25.4694 14.4812 23.8106 15.8553L13.514 24.3427L17.1178 18.5228V10.1162H11.6263V33.7192H17.1178V28.3035L20.2068 25.9593L25.6983 33.7192H31.962L24.4112 22.0794C26.5849 19.5736 32.0306 15.2571 36.4238 18.0378C40.817 20.8184 40.2564 24.9624 39.427 26.6868C39.427 27.0102 38.5518 29.3866 35.051 36.3059C32.1679 40.8325 32.4196 43.9041 32.9058 44.8741H29.9027C29.3593 45.0627 26.6593 45.1812 20.2068 44.1466C13.7543 43.1119 9.28097 40.0511 7.8509 38.65C5.56277 37.0064 0.814918 32.1672 0.128481 25.9593C-0.557956 19.7514 1.67296 13.9423 2.87423 11.8137C3.44626 10.3587 5.87739 6.67276 11.0257 3.56881Z" fill="url(#paint0_linear_116_18)"/>
<defs>
<linearGradient id="paint0_linear_116_18" x1="17.1178" y1="-6.53522" x2="29.212" y2="51.8056" gradientUnits="userSpaceOnUse">
<stop stop-color="#E03FFA"/>
<stop offset="0.260417" stop-color="#CC57F0"/>
<stop offset="0.697917" stop-color="#7947C2"/>
<stop offset="1" stop-color="#3425AF"/>
</linearGradient>
</defs>
</svg>
