<svg width="41" height="36" viewBox="0 0 41 36" fill="none" xmlns="http://www.w3.org/2000/svg">
<path d="M40.4984 5.00523C38.9826 5.71512 37.3748 6.18109 35.7285 6.38764C37.4433 5.30111 38.76 3.58053 39.38 1.53049C37.7499 2.55315 35.9663 3.27367 34.1065 3.66094C32.5915 1.95474 30.4333 0.888428 28.0446 0.888428C23.4581 0.888428 19.7396 4.81935 19.7396 9.66765C19.7396 10.3558 19.8131 11.0258 19.9546 11.6686C13.0526 11.3023 6.93331 7.80716 2.83717 2.4955C2.12246 3.79216 1.71293 5.30044 1.71293 6.90918C1.71293 9.95516 3.17919 12.6423 5.40744 14.2167C4.08862 14.1731 2.79883 13.7965 1.64573 13.1185C1.64525 13.1553 1.64525 13.192 1.64525 13.229C1.64525 17.4827 4.50788 21.0312 8.30691 21.8377C7.08398 22.1893 5.80121 22.2408 4.55659 21.9881C5.61331 25.4761 8.6804 28.0143 12.3143 28.0853C9.47211 30.4399 5.89113 31.8435 2.00039 31.8435C1.32996 31.8435 0.669009 31.8019 0.0192871 31.7208C3.69451 34.2119 8.05977 35.6653 12.7497 35.6653C28.0253 35.6653 36.3784 22.2874 36.3784 10.6858C36.3784 10.305 36.3705 9.92641 36.3544 9.54997C37.9802 8.30745 39.3835 6.76846 40.4984 5.00523Z" fill="url(#paint0_linear_13_16)"/>
<defs>
<linearGradient id="paint0_linear_13_16" x1="20.2589" y1="0.888428" x2="20.2589" y2="35.6653" gradientUnits="userSpaceOnUse">
<stop stop-color="#E03FFA"/>
<stop offset="0.3125" stop-color="#CC57F0"/>
<stop offset="0.630208" stop-color="#8E18B8"/>
<stop offset="0.942708" stop-color="#7947C2"/>
</linearGradient>
</defs>
</svg>
